<svg xmlns="http://www.w3.org/2000/svg" viewBox="0 0 24 24" fill="none" stroke="currentColor" stroke-width="2" stroke-linecap="round" stroke-linejoin="round">
  <path d="M19.439 7.85c-.049-.955-.24-1.874-.555-2.732a3 3 0 0 0-2.002-2.002A11.95 11.95 0 0 0 14.15 2.56a2.5 2.5 0 0 0-4.3 0 11.95 11.95 0 0 0-2.732.556 3 3 0 0 0-2.002 2.002c-.316.858-.506 1.777-.555 2.732a2.5 2.5 0 0 0 0 4.3c.049.955.24 1.874.555 2.732a3 3 0 0 0 2.002 2.002c.858.316 1.777.506 2.732.555a2.5 2.5 0 0 0 4.3 0c.955-.049 1.874-.24 2.732-.555a3 3 0 0 0 2.002-2.002c.316-.858.506-1.777.555-2.732a2.5 2.5 0 0 0 0-4.3z"/>
</svg>
